<svg xmlns="http://www.w3.org/2000/svg" viewBox="0 0 32 32" style="enable-background:new 0 0 32 32" xml:space="preserve"><path d="M8.402 30.079c-.413 0-.823-.13-1.177-.388a1.98 1.98 0 0 1-.782-2.007l1.471-7.355-5.333-5.333a2 2 0 0 1 .98-3.366l6.782-1.507 3.908-7.034a2 2 0 0 1 3.497-.002l3.908 7.034 6.782 1.507a1.998 1.998 0 0 1 .98 3.366l-5.333 5.333 1.471 7.354a1.984 1.984 0 0 1-.782 2.008 1.976 1.976 0 0 1-2.15.133L16 26.144l-6.624 3.68a2 2 0 0 1-.974.255zM16 24c.167 0 .335.042.485.126l7.109 3.95-1.575-7.879a1.002 1.002 0 0 1 .273-.903l5.712-5.712-7.222-1.605a.997.997 0 0 1-.657-.49l-4.129-7.432-4.123 7.432a1 1 0 0 1-.657.49l-7.222 1.605 5.712 5.712a.999.999 0 0 1 .273.903l-1.576 7.879 7.11-3.95c.152-.084.32-.126.487-.126z" style="fill:#333"/><path d="M9.979 16.324c-.458 0-.872-.317-.976-.783a1.001 1.001 0 0 1 .76-1.193l3.203-.712 2.159-3.886a.999.999 0 1 1 1.748.972L14.497 15a1 1 0 0 1-.657.49l-3.643.81a1.011 1.011 0 0 1-.218.024z" style="fill:#008ad0"/></svg>